<svg id="CV" xmlns="http://www.w3.org/2000/svg" width="8.5mm" height="8.5mm" viewBox="0 0 24.09 24.09"><defs><style>.cls-1{fill:#fff;}.cls-2{fill:#525b70;fill-rule:evenodd;}</style></defs><title>cv</title><g id="Software"><g id="Ai"><circle id="_Path_" data-name="&lt;Path&gt;" class="cls-1" cx="12.04" cy="12.04" r="12.04"/><path id="_Compound_Path_" data-name="&lt;Compound Path&gt;" class="cls-2" d="M53,308.2h0v0l0-.14,0-.14,0-.14,0-.14,0-.14,0-.14,0-.14,0-.14,0-.14,0-.14,0-.14,0-.14,0-.14,0-.14,0-.14,0-.14,0-.14,0-.14,0-.14,0-.14,0-.14,0-.14,0-.14,0-.14,0-.14,0-.14,0-.14,0-.14,0-.14,0-.14,0-.14,0-.14,0-.14,0-.14,0-.14,0-.14,0-.14,0-.14,0-.14,0-.14,0-.14,0-.14,0-.14,0-.14,0-.14,0-.14,0-.14,0-.14,0-.14,0-.14,0-.14,0-.14,0-.14,0-.14,0-.14,0-.14,0-.14,0-.14,0-.14,0-.14,0-.14,0-.14,0-.14,0-.14,0-.14,0-.14,0-.14,0-.14,0-.14,0-.14,0-.14,0-.06h2.29l0,.07,0,.14,0,.13,0,.14,0,.14,0,.14,0,.14,0,.14,0,.14,0,.14,0,.14,0,.14,0,.14,0,.14,0,.14,0,.14,0,.13,0,.14,0,.14,0,.14,0,.14,0,.14,0,.14,0,.14,0,.14,0,.14,0,.14,0,.13,0,.14,0,.14,0,.14,0,.14,0,.14,0,.14,0,.14,0,.14,0,.14,0,.14,0,.14,0,.14,0,.14,0,.14,0,.13,0,.14,0,.14,0,.14,0,.14,0,.14,0,.14,0,.14,0,.14,0,.14,0,.14,0,.13,0,.14,0,.14,0,.13,0,.14,0,.14,0,.14,0,.14,0,.14,0,.14,0,.14,0,.14,0,.14,0,.14,0,.13,0,.14,0,.14,0,.14,0,.14,0,.14H59.7v0l0-.14,0-.14,0-.14,0-.14,0-.14,0-.14,0-.14,0-.14,0-.14,0-.14,0-.14,0-.14,0-.14,0-.14,0-.14,0-.14,0-.14,0-.14,0-.14,0-.13H55.68v0l0,.15,0,.14,0,.15,0,.14,0,.15,0,.15,0,.15,0,.15,0,.14,0,.15,0,.15,0,.15,0,.14,0,.15,0,.14,0,.15,0,.14,0,.15,0,.14H53Zm11.25-9.11v0a1,1,0,0,1-.15.5l0,.06,0,.05,0,0,0,0,0,0,0,0,0,0,0,0,0,0,0,0,0,0h-.75l0,0,0,0,0,0,0,0,0,0,0,0,0,0,0,0,0,0,0-.05,0-.06,0-.08,0-.1a1,1,0,0,1,0-.16,1,1,0,0,1,0-.19,1.05,1.05,0,0,1,0-.19,1,1,0,0,1,0-.16l0-.1,0-.08,0-.06,0-.05,0,0,0,0,0,0,0,0,0,0,0,0,0,0,0,0,0,0h.75l0,0,0,0,0,0,0,0,0,0,0,0,0,0,0,0,0,0,0,.06,0,.07a1.08,1.08,0,0,1,.15.52Zm-.15,2h0v7.11H62.32v-7.11h1.77ZM58.49,304l0-.14,0-.14,0-.14,0-.14,0-.14,0-.14,0-.14,0-.14,0-.14,0-.14,0-.14,0-.14,0-.14,0-.14,0-.14,0-.14,0-.14,0-.06,0-.08,0-.15,0-.15,0-.16,0-.16,0-.16,0-.17,0-.17,0-.17,0-.18,0-.17,0-.12h0l0,.11,0,.18,0,.18,0,.18,0,.18,0,.18,0,.18,0,.17,0,.17,0,.16,0,.15h0l0,.14,0,.14,0,.14,0,.14,0,.14,0,.14,0,.14,0,.14,0,.14,0,.14,0,.14,0,.14,0,.14,0,.14,0,.14,0,.14,0,.14v0H58.5Z" transform="translate(-46.56 -291.12)"/></g></g></svg>