<svg id="CV" xmlns="http://www.w3.org/2000/svg" viewBox="0 0 19.19 23.81"><defs><style>.cls-1{fill:#f6783f;fill-rule:evenodd;}</style></defs><title>award</title><g id="Achivements"><g id="Icon"><path class="cls-1" d="M248.42,544.22a2.2,2.2,0,0,1,2-1.14,1.19,1.19,0,0,0,1.32-1.32,2.19,2.19,0,0,1,1.13-2,1.19,1.19,0,0,0,.49-1.8,2.17,2.17,0,0,1,0-2.27,1.19,1.19,0,0,0-.49-1.8,2.18,2.18,0,0,1-1.13-2,1.19,1.19,0,0,0-1.32-1.32,2.2,2.2,0,0,1-2-1.14,1.18,1.18,0,0,0-1.8-.48,2.2,2.2,0,0,1-2.28,0,1.18,1.18,0,0,0-1.8.48,2.19,2.19,0,0,1-2,1.14,1.19,1.19,0,0,0-1.32,1.32,2.19,2.19,0,0,1-1.13,2,1.18,1.18,0,0,0-.49,1.8,2.17,2.17,0,0,1,0,2.27,1.18,1.18,0,0,0,.49,1.8,2.19,2.19,0,0,1,1.13,2,1.19,1.19,0,0,0,1.32,1.32,2.2,2.2,0,0,1,2,1.14,1.18,1.18,0,0,0,1.8.48,2.23,2.23,0,0,1,2.28,0,1.18,1.18,0,0,0,1.8-.48Zm-2.94-2.62a4.76,4.76,0,1,1,4.76-4.76,4.76,4.76,0,0,1-4.76,4.76Zm0,0" transform="translate(-235.88 -528.76)"/><path class="cls-1" d="M240.49,543.78c-.92,0-1-.43-1-.43l-3.57,7,2.86-.32,1.58,2.38s3.3-6.88,3.3-6.84c-1.71,0-1-1.77-3.14-1.81Zm0,0" transform="translate(-235.88 -528.76)"/><path class="cls-1" d="M251.45,543.63c-2.6.27-2.08.92-2.67,1.43a1.83,1.83,0,0,1-1.54.59l4,6.93,1-2.56,2.82.37Zm0,0" transform="translate(-235.88 -528.76)"/><path class="cls-1" d="M246.47,535.8l-1-2-1,2-2.23.33,1.61,1.57-.38,2.22,2-1,2,1-.38-2.22,1.61-1.57Zm0,0" transform="translate(-235.88 -528.76)"/></g></g></svg>