<svg id="CV" xmlns="http://www.w3.org/2000/svg" width="18.88mm" height="4.03mm" viewBox="0 0 53.51 11.41"><defs><style>.cls-1{fill:#fff;fill-rule:evenodd;}</style></defs><title>Axure</title><g id="Software"><path id="Axure" class="cls-1" d="M49.46,336.92a3.37,3.37,0,0,1,3.23-3.35,3.22,3.22,0,0,1,2.07.6,3.31,3.31,0,0,1,.47,5.06,3.38,3.38,0,0,1-5.78-2.3ZM62,342.54h.6c.46,0,.36-.05.84-.72.08-.1.08-.07.12-.2A2.48,2.48,0,0,0,64,341a3.18,3.18,0,0,0,.35-.44l.34-.46.33-.47a1.92,1.92,0,0,0,.33-.51c.13,0,.12.07.26.26a3.06,3.06,0,0,0,.22.3c.11.16.21.3.33.46a5.37,5.37,0,0,1,.35.5l1.36,1.87h3a4.49,4.49,0,0,0-.38-.54l-2.82-3.82-.16-.23-.19-.24a3.26,3.26,0,0,0-.44-.61l2-2.75a2.37,2.37,0,0,0,.27-.34l1.85-2.56-3,0c0,.13,0,.07-.1.18l-.13.19L66.2,334a1.4,1.4,0,0,0-.26.39,1.85,1.85,0,0,0-.3.37l-.13.19c-.07.11-.06.14-.17.12-.08-.18-.76-1.09-.94-1.35l-.34-.46-.31-.45-1-1.35c-.45,0-2.68-.06-2.91,0a1.24,1.24,0,0,0,.21.32c.09.12.15.22.23.33s.3.43.45.64a3,3,0,0,1,.25.34l.25.35a4.45,4.45,0,0,1,.48.7c.22.2,1.73,2.4,2,2.63,0,.14.16.19.2.33a4.22,4.22,0,0,1-.32.49l-1,1.44-.48.69c-.06,0,0,0-.06,0l-.07.08-.38.54c-.16.22-1.47,2-1.52,2.15Zm22-.08h2.35v-5.9a2.5,2.5,0,0,1,.86-2.21,3.19,3.19,0,0,1,1.07-.48,3.27,3.27,0,0,1,.66-.1c.36,0,.68.08.68-.12v-2.16c0-.18-.19-.12-.6-.12a5.12,5.12,0,0,0-1.53.26,3.44,3.44,0,0,0-.9.45c-.13.1-.14.17-.24.24v-1H84v11.09Zm-12.09-4.35a4.65,4.65,0,0,0,.15,1,4.47,4.47,0,0,0,1.24,2.23,4,4,0,0,0,1.37.91,4.71,4.71,0,0,0,3.54.1,2.57,2.57,0,0,0,.55-.29c.19-.14.3-.3.47-.41v.84h2.35V331.37H79.19v6.38a2.49,2.49,0,0,1-3.43,2.31,2.06,2.06,0,0,1-.65-.38,3.35,3.35,0,0,1-.49-.55,2.53,2.53,0,0,1-.3-.7c-.16-.62-.08-5.07-.08-6.14,0-.38.08-.92-.12-.92H71.89v6.74ZM95,333.65a3.31,3.31,0,0,1,2.66,1.41,4.93,4.93,0,0,1,.46.9H91.84A3.71,3.71,0,0,1,93,334.39a3.2,3.2,0,0,1,2-.74Zm-.24,8.9a5.35,5.35,0,0,1-2.23-.56,6.19,6.19,0,0,1-.88-.52,3.32,3.32,0,0,1-.39-.33,2.09,2.09,0,0,0-.18-.18.94.94,0,0,1-.17-.15c-.13-.15-.22-.24-.33-.39s-.19-.25-.28-.39a5.69,5.69,0,0,1-.82-2,6,6,0,0,1-.13-1.25,5.71,5.71,0,0,1,.55-2.25,3.18,3.18,0,0,1,.24-.48l.42-.62a5.72,5.72,0,0,1,3.2-2,5.56,5.56,0,0,1,3.57.37c.15.08.33.16.48.24a5.83,5.83,0,0,1,2.87,4.83,5.36,5.36,0,0,1-.14,1.3c-.07.11-.33.06-.58.06h-8a1.72,1.72,0,0,0,.33.7A3.6,3.6,0,0,0,94,340.22a2.91,2.91,0,0,0,2.5-.28c.74-.45.26-.48,1.23-.26l1.89.38a4.23,4.23,0,0,1-.81.95,6,6,0,0,1-1,.73,5.47,5.47,0,0,1-3.11.8Zm-47.6-5.94a5.21,5.21,0,0,0,.55,2.77A5.69,5.69,0,0,0,50.37,342a5.39,5.39,0,0,0,4.55.09,3.85,3.85,0,0,0,.7-.42c.31-.23.48-.45.59-.52v1.28h2.27c.09,0,.12,0,.12-.12v-11H56.21v1.24c-.14-.09-.13-.17-.27-.29a4.67,4.67,0,0,0-2.8-1.11,6.16,6.16,0,0,0-1.79.17,5.28,5.28,0,0,0-1,.38l-.83.48a5.78,5.78,0,0,0-1.34,1.33l-.5.86A4.83,4.83,0,0,0,47.15,336.6Z" transform="translate(-47.15 -331.21)"/></g></svg>