<svg id="CV" xmlns="http://www.w3.org/2000/svg" width="8.72mm" height="7.98mm" viewBox="0 0 24.73 22.63"><defs><style>.cls-1{fill:#fff;}</style></defs><title>diamond</title><g id="Software"><path id="Sketch" class="cls-1" d="M58.42,379.34l-7.28-9.72c-1.6-2.14-3.19-4.28-4.8-6.41a.65.65,0,0,1,0-.95c.74-1,1.69-1.87,2.45-2.88a3.46,3.46,0,0,1,1.45-1.13c1.07-.44,2.14-.9,3.2-1.37a2.1,2.1,0,0,1,.88-.17h8.22a2.44,2.44,0,0,1,1,.21c1.06.46,2.12.94,3.2,1.37a3.66,3.66,0,0,1,1.49,1.29c.76.94,1.6,1.82,2.43,2.7.26.28.25.45,0,.75q-6.06,8.07-12.11,16.16A1.62,1.62,0,0,1,58.42,379.34Zm9.14-13.54a5.56,5.56,0,0,0-1.65,1.36c-1.19,1.84-2.31,3.72-3.46,5.59l.18.13,5.05-7c.08-.1.23-.17.11-.34Zm-14.92,1.71,5.81,10.31,5.79-10.31Zm11.91-1.41c-.82-1.45-1.59-2.81-2.36-4.18a.5.5,0,0,0-.52-.25H55.25c-.21,0-.41,0-.54.22-.78,1.39-1.56,2.77-2.37,4.21ZM51.45,359c1,.48,1.92.89,2.8,1.32a2.72,2.72,0,0,0,1.27.29c2,0,3.95,0,5.92,0a1.71,1.71,0,0,0,.75-.08L65.42,359c-.92-.4-1.75-.74-2.56-1.12a3.76,3.76,0,0,0-1.68-.34c-1.95,0-3.9,0-5.85,0a2,2,0,0,0-.88.14C53.51,358.12,52.55,358.52,51.45,359Zm12.07,2.53c.8,1.16,1.59,2.25,2.31,3.39.29.47.59.4.87.13a29.9,29.9,0,0,1,2.49-2c.25-.2.23-.33.05-.56-.61-.79-1.19-1.6-1.78-2.41a.38.38,0,0,0-.57-.15C65.79,360.47,64.67,361,63.52,361.52Zm-12.93,3.76c.21,0,.25-.15.33-.26.72-1,1.43-2.11,2.17-3.14.22-.31.12-.41-.17-.54-1-.44-1.93-.9-2.88-1.38-.3-.15-.48-.14-.69.15-.56.8-1.14,1.58-1.73,2.35-.2.25-.21.39.07.6.89.66,1.76,1.35,2.64,2Zm3.84,7.91a.51.51,0,0,0-.05-.46c-1.14-1.86-2.25-3.74-3.44-5.56a4.78,4.78,0,0,0-1.9-1.41Z" transform="translate(-46.14 -356.71)"/></g></svg>