<svg id="CV" xmlns="http://www.w3.org/2000/svg" viewBox="0 0 20.65 17.22"><defs><style>.cls-1{fill:#f6783f;}</style></defs><title>hat</title><g id="Education"><path id="Icon" class="cls-1" d="M256.53,689.44l-10.37-2.65-10.28,2.63.07.68,4.08,1.07,0,5c.88,2.86,5.92,2.93,5.92,2.93,5.83,0,6.35-2.93,6.35-2.93l0-5,.24-.06a9.32,9.32,0,0,1,.38,4c-.19,3-.22,3.91-.2,4.4a.78.78,0,0,0-.08,1.53,15.75,15.75,0,0,1-1,2.76l.29.1s.36-.81.44-1.1c0,.23-.21,1-.25,1.1l.29,0a8.05,8.05,0,0,0,.16-.8,6.22,6.22,0,0,0,0,.79l.29,0a4.27,4.27,0,0,1,0-.82,3.84,3.84,0,0,1,.13.82h.28a6.94,6.94,0,0,0-.13-1,3.2,3.2,0,0,1,.3.89l.24,0s-.45-2.24-.62-2.8a.78.78,0,0,0,0-1.5c0-.46,0-1.31.2-4.4a10,10,0,0,0-.39-4.12l3.52-.88Zm-10.45.94c-3.34,0-6-.49-6-1.09s2.7-1.09,6-1.09,6,.49,6,1.09S249.42,690.38,246.08,690.38Z" transform="translate(-235.88 -686.79)"/></g></svg>