<svg id="CV" xmlns="http://www.w3.org/2000/svg" viewBox="0 0 135.01 88.33"><defs><style>.cls-1,.cls-2{fill:#fff;}.cls-2,.cls-4{fill-rule:evenodd;}.cls-3,.cls-4{fill:#525b70;}</style></defs><title>Iconos</title><g id="Software"><g id="Justinmind"><g id="_Group_" data-name="&lt;Group&gt;"><path id="_Compound_Path_" data-name="&lt;Compound Path&gt;" class="cls-1" d="M167.65,368.26h-.15a1.34,1.34,0,0,0,.15,2.68h.15a1.34,1.34,0,0,0-.15-2.68Z" transform="translate(-46.14 -291.12)"/><path id="_Compound_Path_2" data-name="&lt;Compound Path&gt;" class="cls-1" d="M181.11,362.53a6.69,6.69,0,0,0-6.63-5.93h0a6.76,6.76,0,0,0-.76,0,6.68,6.68,0,1,0,7.39,5.88Z" transform="translate(-46.14 -291.12)"/></g><path id="_Path_" data-name="&lt;Path&gt;" class="cls-1" d="M94.67,370.16h2.9v5.11c0,2.28-1.59,3.65-4.27,3.65h-.1v.42h.1c2.93,0,4.68-1.52,4.68-4.07v-5.51h-3.3Z" transform="translate(-46.14 -291.12)"/><path id="_Path_2" data-name="&lt;Path&gt;" class="cls-1" d="M105.92,376.69c0,1.52-1.53,2.34-3,2.34s-3-.81-3-2.32v-6.94h-.42v6.93c0,1.79,1.75,2.76,3.39,2.76,2.2,0,3.39-1.41,3.39-2.74v-6.94h-.42Z" transform="translate(-46.14 -291.12)"/><path id="_Path_3" data-name="&lt;Path&gt;" class="cls-1" d="M111.24,374.32c-1.45-.14-2.83-.28-2.94-1.88a1.87,1.87,0,0,1,.39-1.36,3,3,0,0,1,2.37-1h.06a3,3,0,0,1,2.21.82,2,2,0,0,1,.48,1l0,.22.41-.08,0-.21a2.92,2.92,0,0,0-3.08-2.13,3.49,3.49,0,0,0-2.79,1.2,2.3,2.3,0,0,0-.46,1.64c.13,1.94,1.74,2.1,3.29,2.26,1.33.13,2.59.26,2.85,1.49a2,2,0,0,1-.39,1.74,3.28,3.28,0,0,1-2.52,1.06c-1.3,0-2.75-.71-2.89-2l0-.2-.42.05,0,.2c.16,1.55,1.82,2.39,3.29,2.39A3.75,3.75,0,0,0,114,378.2a2.37,2.37,0,0,0,.46-2.05C114.12,374.61,112.65,374.46,111.24,374.32Z" transform="translate(-46.14 -291.12)"/><polygon id="_Path_4" data-name="&lt;Path&gt;" class="cls-1" points="68.51 79.05 71.75 79.05 71.75 88.26 72.16 88.26 72.16 79.05 75.41 79.05 75.41 78.63 68.51 78.63 68.51 79.05"/><polygon id="_Path_5" data-name="&lt;Path&gt;" class="cls-1" points="76.09 79.04 78.09 79.04 78.09 87.81 76.09 87.81 76.09 88.22 80.5 88.22 80.5 87.81 78.5 87.81 78.5 79.04 80.5 79.04 80.5 78.64 76.09 78.64 76.09 79.04"/><polygon id="_Path_6" data-name="&lt;Path&gt;" class="cls-1" points="95.62 78.63 92.46 83.28 89.3 78.63 88.47 78.63 88.47 78.63 88.06 78.63 88.06 87.4 81.99 78.63 81.64 78.61 81.64 88.22 82.07 88.22 82.07 79.5 88.1 88.22 88.18 88.22 88.47 88.22 89.56 88.22 89.56 81.46 92.06 85.18 92.84 85.18 95.34 81.46 95.34 88.2 96.71 88.2 96.71 78.63 95.62 78.63"/><path id="_Compound_Path_3" data-name="&lt;Compound Path&gt;" class="cls-1" d="M149.12,371.13h-1.78v6.81h1.78v1.38h-4.94v-1.38H146v-6.81h-1.78v-1.37h4.94Z" transform="translate(-46.14 -291.12)"/><path id="_Compound_Path_4" data-name="&lt;Compound Path&gt;" class="cls-1" d="M150.35,379.32v-9.58h1.07l4.66,6.74v-6.74h1.37v9.57h-1.09l-4.62-6.69v6.69Z" transform="translate(-46.14 -291.12)"/><path id="_Compound_Path_5" data-name="&lt;Compound Path&gt;" class="cls-1" d="M162.38,369.77a4.78,4.78,0,0,1,0,9.56h-3.43v-9.56Zm0,8.18a3.4,3.4,0,0,0,0-6.79h-2.05v6.79Z" transform="translate(-46.14 -291.12)"/></g><path id="Sketch" class="cls-1" d="M58.42,379.34l-7.28-9.72c-1.6-2.14-3.19-4.28-4.8-6.41a.65.65,0,0,1,0-.95c.74-1,1.69-1.87,2.45-2.88a3.46,3.46,0,0,1,1.45-1.13c1.07-.44,2.14-.9,3.2-1.37a2.1,2.1,0,0,1,.88-.17h8.22a2.44,2.44,0,0,1,1,.21c1.06.46,2.12.94,3.2,1.37a3.66,3.66,0,0,1,1.49,1.29c.76.94,1.6,1.82,2.43,2.7.26.28.25.45,0,.75q-6.06,8.07-12.11,16.16A1.62,1.62,0,0,1,58.42,379.34Zm9.14-13.54a5.56,5.56,0,0,0-1.65,1.36c-1.19,1.84-2.31,3.72-3.46,5.59l.18.13,5.05-7c.08-.1.23-.17.11-.34Zm-14.92,1.71,5.81,10.31,5.79-10.31Zm11.91-1.41c-.82-1.45-1.59-2.81-2.36-4.18a.5.5,0,0,0-.52-.25H55.25c-.21,0-.41,0-.54.22-.78,1.39-1.56,2.77-2.37,4.21ZM51.45,359c1,.48,1.92.89,2.8,1.32a2.72,2.72,0,0,0,1.27.29c2,0,3.95,0,5.92,0a1.71,1.71,0,0,0,.75-.08L65.42,359c-.92-.4-1.75-.74-2.56-1.12a3.76,3.76,0,0,0-1.68-.34c-1.95,0-3.9,0-5.85,0a2,2,0,0,0-.88.14C53.51,358.12,52.55,358.52,51.45,359Zm12.07,2.53c.8,1.16,1.59,2.25,2.31,3.39.29.47.59.4.87.13a29.9,29.9,0,0,1,2.49-2c.25-.2.23-.33.05-.56-.61-.79-1.19-1.6-1.78-2.41a.38.38,0,0,0-.57-.15C65.79,360.47,64.67,361,63.52,361.52Zm-12.93,3.76c.21,0,.25-.15.33-.26.72-1,1.43-2.11,2.17-3.14.22-.31.12-.41-.17-.54-1-.44-1.93-.9-2.88-1.38-.3-.15-.48-.14-.69.15-.56.8-1.14,1.58-1.73,2.35-.2.25-.21.39.07.6.89.66,1.76,1.35,2.64,2Zm3.84,7.91a.51.51,0,0,0-.05-.46c-1.14-1.86-2.25-3.74-3.44-5.56a4.78,4.78,0,0,0-1.9-1.41Z" transform="translate(-46.14 -291.12)"/><path id="Invision" class="cls-2" d="M126.63,340.23v.51c1.2,0,2-.1,2.51-1.73a21.94,21.94,0,0,0,.71-3h-1.19c0-1.68.35-1.36,2.88-1.36,0,.77-.17.67-.17,1.53.66-.48.92-1.46,2.25-1.61a1.81,1.81,0,0,1,2,2c0,1.71-1,2.82-.68,4.24.71,0,.6.05.95-.41s-.08-.52.75-.61c.49,1.07-1.58,3-3,1.83-1.8-1.48,2.08-5.56-.88-5.56-1.3,0-1.46,1.24-1.73,2.34a29.14,29.14,0,0,0-.81,3.43h-1.7a9.48,9.48,0,0,0,.17-1.19,3.28,3.28,0,0,1-2.38,1.36c-2.68,0-.54-4.61-.51-5.94h-1.19c.14-1.69.18-1.36,3.22-1.36,0,1.36-1.19,4.12-1.19,5.6Zm20-5.43v7.29h1.87v-7.8h-1.36c-.39,0-.51.12-.51.51Zm10,7.29h1.87v-7.8h-1.87v7.8Zm-2.71-2c-.25-.92-1.19-.94-2.15-1.25-3.58-1.15-2-4.69.79-4.69a10.25,10.25,0,0,1,2.88.85c-.61,2.3-3.9-.39-3.9,1.36,0,1.51,4.07.64,4.07,3.56,0,3.17-5,2.72-6.11,1.19.11-.4,0-.35.41-.61,1.37-.86,2.82,1.35,4-.41Zm16.8-4.92v-.85h-1.87v7.8h1.87v-4.58a1.61,1.61,0,0,1,3.22,0v4.58h1.87c0-3.87.82-8-2.88-8a3.75,3.75,0,0,0-2.21,1Zm-7.13.68a2.38,2.38,0,0,1,1.63.57c1,.95,1.49,4.18-1.8,4.18-2.58,0-2.7-4.75.17-4.75Zm-4.07,2.38c0,5.11,8.31,5.89,8.31-.34a4.09,4.09,0,0,0-3.9-3.73,4.17,4.17,0,0,0-4.41,4.07Zm-32.07-4.75H127c-1,0-1.1-1.9.19-2s1.49,2,.32,2ZM121,329.71v14.76a1.77,1.77,0,0,0,1.36,1.7H138c1.61,0,1.53-1.43,1.53-3.05s0-3.05,0-4.58l.44.74c.17.4.26.67.38,1a14.53,14.53,0,0,1,.7,1.84h1.87l3.05-7.8h-2a35.17,35.17,0,0,1-2,5.43,20.59,20.59,0,0,0-.92-2.64,17.14,17.14,0,0,1-.95-2.79h-.51c0-3.74.73-6.62-2-6.62H122.89a2.29,2.29,0,0,0-1.32.54A1.8,1.8,0,0,0,121,329.71Z" transform="translate(-46.14 -291.12)"/><path id="Axure" class="cls-2" d="M49.46,336.92a3.37,3.37,0,0,1,3.23-3.35,3.22,3.22,0,0,1,2.07.6,3.31,3.31,0,0,1,.47,5.06,3.38,3.38,0,0,1-5.78-2.3ZM62,342.54h.6c.46,0,.36-.05.84-.72.08-.1.08-.07.12-.2A2.48,2.48,0,0,0,64,341a3.18,3.18,0,0,0,.35-.44l.34-.46.33-.47a1.92,1.92,0,0,0,.33-.51c.13,0,.12.07.26.26a3.06,3.06,0,0,0,.22.3c.11.16.21.3.33.46a5.37,5.37,0,0,1,.35.5l1.36,1.87h3a4.49,4.49,0,0,0-.38-.54l-2.82-3.82-.16-.23-.19-.24a3.26,3.26,0,0,0-.44-.61l2-2.75a2.37,2.37,0,0,0,.27-.34l1.85-2.56-3,0c0,.13,0,.07-.1.18l-.13.19L66.2,334a1.4,1.4,0,0,0-.26.39,1.85,1.85,0,0,0-.3.37l-.13.19c-.07.11-.06.14-.17.12-.08-.18-.76-1.09-.94-1.35l-.34-.46-.31-.45-1-1.35c-.45,0-2.68-.06-2.91,0a1.24,1.24,0,0,0,.21.32c.09.12.15.22.23.33s.3.43.45.64a3,3,0,0,1,.25.34l.25.35a4.45,4.45,0,0,1,.48.7c.22.2,1.73,2.4,2,2.63,0,.14.16.19.2.33a4.22,4.22,0,0,1-.32.49l-1,1.44-.48.69c-.06,0,0,0-.06,0l-.07.08-.38.54c-.16.22-1.47,2-1.52,2.15Zm22-.08h2.35v-5.9a2.5,2.5,0,0,1,.86-2.21,3.19,3.19,0,0,1,1.07-.48,3.27,3.27,0,0,1,.66-.1c.36,0,.68.08.68-.12v-2.16c0-.18-.19-.12-.6-.12a5.12,5.12,0,0,0-1.53.26,3.44,3.44,0,0,0-.9.45c-.13.1-.14.17-.24.24v-1H84v11.09Zm-12.09-4.35a4.65,4.65,0,0,0,.15,1,4.47,4.47,0,0,0,1.24,2.23,4,4,0,0,0,1.37.91,4.71,4.71,0,0,0,3.54.1,2.57,2.57,0,0,0,.55-.29c.19-.14.3-.3.47-.41v.84h2.35V331.37H79.19v6.38a2.49,2.49,0,0,1-3.43,2.31,2.06,2.06,0,0,1-.65-.38,3.35,3.35,0,0,1-.49-.55,2.53,2.53,0,0,1-.3-.7c-.16-.62-.08-5.07-.08-6.14,0-.38.08-.92-.12-.92H71.89v6.74ZM95,333.65a3.31,3.31,0,0,1,2.66,1.41,4.93,4.93,0,0,1,.46.9H91.84A3.71,3.71,0,0,1,93,334.39a3.2,3.2,0,0,1,2-.74Zm-.24,8.9a5.35,5.35,0,0,1-2.23-.56,6.19,6.19,0,0,1-.88-.52,3.32,3.32,0,0,1-.39-.33,2.09,2.09,0,0,0-.18-.18.94.94,0,0,1-.17-.15c-.13-.15-.22-.24-.33-.39s-.19-.25-.28-.39a5.69,5.69,0,0,1-.82-2,6,6,0,0,1-.13-1.25,5.71,5.71,0,0,1,.55-2.25,3.18,3.18,0,0,1,.24-.48l.42-.62a5.72,5.72,0,0,1,3.2-2,5.56,5.56,0,0,1,3.57.37c.15.08.33.16.48.24a5.83,5.83,0,0,1,2.87,4.83,5.36,5.36,0,0,1-.14,1.3c-.07.11-.33.06-.58.06h-8a1.72,1.72,0,0,0,.33.7A3.6,3.6,0,0,0,94,340.22a2.91,2.91,0,0,0,2.5-.28c.74-.45.26-.48,1.23-.26l1.89.38a4.23,4.23,0,0,1-.81.95,6,6,0,0,1-1,.73,5.47,5.47,0,0,1-3.11.8Zm-47.6-5.94a5.21,5.21,0,0,0,.55,2.77A5.69,5.69,0,0,0,50.37,342a5.39,5.39,0,0,0,4.55.09,3.85,3.85,0,0,0,.7-.42c.31-.23.48-.45.59-.52v1.28h2.27c.09,0,.12,0,.12-.12v-11H56.21v1.24c-.14-.09-.13-.17-.27-.29a4.67,4.67,0,0,0-2.8-1.11,6.16,6.16,0,0,0-1.79.17,5.28,5.28,0,0,0-1,.38l-.83.48a5.78,5.78,0,0,0-1.34,1.33l-.5.86A4.83,4.83,0,0,0,47.15,336.6Z" transform="translate(-46.14 -291.12)"/><g id="AI"><circle id="_Path_7" data-name="&lt;Path&gt;" class="cls-1" cx="118.49" cy="12.04" r="12.04"/><path class="cls-3" d="M169.25,303.48a4,4,0,0,0,.67,0c0-.06,0-.11,0-.15a1.25,1.25,0,0,0-1.17-1.39c-.87,0-1.24.76-1.33,1.56h1.81Zm-1.83,1.24a1.81,1.81,0,0,0,2,2,3.53,3.53,0,0,0,1.47-.28c.06,0,.11,0,.11.06v1.13a.19.19,0,0,1-.09.18,4.09,4.09,0,0,1-1.81.34c-2.38,0-3.27-1.76-3.27-3.72,0-2.13,1.1-3.87,3-3.87s2.65,1.65,2.65,3a4.56,4.56,0,0,1-.07,1,.13.13,0,0,1-.12.12,13.06,13.06,0,0,1-1.51.06h-2.36Zm-4.83-.92c-.25-1-.87-3.18-1.09-4.24h0c-.19,1.06-.69,2.84-1.06,4.24ZM160,305.26l-.71,2.7c0,.07,0,.1-.14.1h-1.33c-.09,0-.11,0-.09-.14l2.56-9a2.76,2.76,0,0,0,.09-.74c0-.06,0-.09.07-.09h1.89c.06,0,.09,0,.11.09l2.87,9.71c0,.07,0,.12-.07.12h-1.49a.12.12,0,0,1-.14-.09l-.74-2.71H160Z" transform="translate(-46.14 -291.12)"/></g><g id="Ps"><circle id="_Path_8" data-name="&lt;Path&gt;" class="cls-1" cx="65.48" cy="12.04" r="12.04"/><path id="_Compound_Path_6" data-name="&lt;Compound Path&gt;" class="cls-4" d="M105.64,308.37h0l.28-9.71h4.52l0,0,0,0,0,0,0,0,0,0,0,0,0,0,0,0,0,0,0,0,0,0,0,0,0,0,0,0,0,0,0,0,0,0,0,0,0,0,0,0,0,0,0,0,0,0,0,0,0,0,0,0,0,0,0,0,0,0,0,0,0,.05,0,.05,0,.06,0,.06,0,.06,0,.07,0,.07,0,.08,0,.09,0,.09,0,.1,0,.12,0,.13,0,.16c0,.07,0,.14,0,.2a3,3,0,0,1,0,.35q0,.12,0,.25c0,.1,0,.2,0,.29a3.84,3.84,0,0,1-.06.39c0,.08,0,.15-.05.22l-.05.17-.05.14,0,.12-.05.11,0,.1,0,.09,0,.08,0,.07,0,.07,0,.06,0,.06,0,.06,0,.05,0,0,0,0,0,0h0l0,0,0,0,0,0,0,0,0,0,0,0,0,0,0,0,0,0,0,0,0,0,0,0,0,0,0,0,0,0,0,0,0,0,0,0,0,0,0,0,0,0,0,0,0,0,0,0,0,0,0,0,0,0H107.5l-.11,3.71h-1.75Zm11.9-1.76v.09a2.25,2.25,0,0,1-.09.53l-.05.14,0,.11,0,.1,0,.09,0,.07,0,.07,0,.06,0,.06,0,.05,0,0,0,0,0,0,0,0,0,0,0,0,0,0,0,0,0,0,0,0,0,0,0,0,0,0,0,0,0,0,0,0,0,0,0,0,0,0,0,0,0,0,0,0h-2.78l0,0,0,0,0,0,0,0,0,0,0,0,0,0,0,0,0,0,0,0,0,0,0,0,0,0,0,0,0,0,0,0h0l0-.07.05-.17.05-.17.05-.17.05-.17.05-.17.05-.17.05-.17v0l0,0,0,0,0,0,0,0,0,0,0,0,0,0,0,0,0,0,0,0,0,0,0,0,0,0,0,0,0,0,0,0,0,0,0,0h1.62l0,0,0,0,0,0,0,0,0,0,0,0,0,0,0-.05,0-.06,0-.09a.68.68,0,0,0,.05-.17.81.81,0,0,0,0-.12.9.9,0,0,0,0-.13.74.74,0,0,0,0-.18l0-.09,0-.07,0-.06,0,0,0,0,0,0,0,0,0,0,0,0,0,0,0,0,0,0,0,0,0,0,0,0,0,0,0,0,0,0,0,0,0,0,0,0,0,0,0,0,0,0h0l0,0,0,0,0,0,0,0,0,0,0,0,0,0,0,0,0,0,0,0,0,0,0,0,0,0,0,0,0,0,0,0,0,0,0,0,0,0,0,0,0,0,0,0,0,0,0,0,0,0,0,0,0,0,0,0,0,0,0,0,0,0,0,0,0-.05,0-.06,0-.06,0-.07,0-.07,0-.08,0-.09,0-.11,0-.14a1.56,1.56,0,0,1,0-.23,1.71,1.71,0,0,1,0-.25,2.19,2.19,0,0,1,0-.25,2,2,0,0,1,.05-.26,1.57,1.57,0,0,1,.05-.16l0-.12,0-.1,0-.09,0-.08,0-.07,0-.07,0-.06,0-.06,0-.05,0,0,0,0,0,0,0,0,0,0,0,0,0,0,0,0,0,0,0,0,0,0,0,0,0,0,0,0,0,0,0,0,0,0,0,0,0,0,0,0,0,0h2.45l0,0h0l0,0,0,0,0,0,0,0,0,0,0,0,0,0,0,0,0,0,0,0,0,0h0l0,.07-.05.17-.05.17-.05.17-.05.17-.05.17-.05.17-.05.17v0l0,0,0,0,0,0,0,0,0,0,0,0,0,0,0,0,0,0,0,0,0,0,0,0,0,0,0,0H115l0,0,0,0,0,0,0,0,0,0,0,0,0,0,0,.05,0,.06,0,.09a.67.67,0,0,0-.05.19s0,.05,0,.08a.81.81,0,0,0,0,.08.63.63,0,0,0,0,.18l0,.09,0,.06,0,.05,0,0,0,0,0,0,0,0,0,0,0,0,0,0,0,0,0,0,0,0,0,0,0,0,0,0,0,0,0,0,0,0,0,0,0,0,0,0,0,0,0,0,0,0h0l0,0,0,0,0,0,0,0,0,0,0,0,0,0,0,0,0,0,0,0,0,0,0,0,0,0,0,0,0,0,0,0,0,0,0,0,0,0,0,0,0,0,0,0,0,0,0,0,0,0,0,0,0,0,0,0,0,0,0,.05,0,.05,0,.06,0,.06,0,.07,0,.08,0,.09,0,.1,0,.12,0,.15a2.26,2.26,0,0,1,.06.55Zm-6.92-5.25a1.6,1.6,0,0,0,0-.23l0-.14,0-.11,0-.09,0-.08,0-.07,0-.06,0-.05,0-.05,0,0,0,0,0,0,0,0,0,0,0,0,0,0,0,0,0,0,0,0,0,0,0,0,0,0,0,0,0,0,0,0h-1.86l-.1,3.33h1.86l0,0,0,0,0,0,0,0,0,0,0,0,0,0,0,0,0,0,0,0,0,0,0,0,0,0,0,0,0,0,0,0,0-.05,0-.06,0-.06,0-.07,0-.08,0-.09,0-.11,0-.15a1.8,1.8,0,0,0,.05-.23,2.15,2.15,0,0,0,0-.3A2.17,2.17,0,0,0,110.62,301.35Z" transform="translate(-46.14 -291.12)"/></g><g id="Ai-2" data-name="Ai"><circle id="_Path_9" data-name="&lt;Path&gt;" class="cls-1" cx="12.47" cy="12.04" r="12.04"/><path id="_Compound_Path_7" data-name="&lt;Compound Path&gt;" class="cls-4" d="M53,308.2h0v0l0-.14,0-.14,0-.14,0-.14,0-.14,0-.14,0-.14,0-.14,0-.14,0-.14,0-.14,0-.14,0-.14,0-.14,0-.14,0-.14,0-.14,0-.14,0-.14,0-.14,0-.14,0-.14,0-.14,0-.14,0-.14,0-.14,0-.14,0-.14,0-.14,0-.14,0-.14,0-.14,0-.14,0-.14,0-.14,0-.14,0-.14,0-.14,0-.14,0-.14,0-.14,0-.14,0-.14,0-.14,0-.14,0-.14,0-.14,0-.14,0-.14,0-.14,0-.14,0-.14,0-.14,0-.14,0-.14,0-.14,0-.14,0-.14,0-.14,0-.14,0-.14,0-.14,0-.14,0-.14,0-.14,0-.14,0-.14,0-.14,0-.14,0-.14,0-.14,0-.06h2.29l0,.07,0,.14,0,.13,0,.14,0,.14,0,.14,0,.14,0,.14,0,.14,0,.14,0,.14,0,.14,0,.14,0,.14,0,.14,0,.14,0,.13,0,.14,0,.14,0,.14,0,.14,0,.14,0,.14,0,.14,0,.14,0,.14,0,.14,0,.13,0,.14,0,.14,0,.14,0,.14,0,.14,0,.14,0,.14,0,.14,0,.14,0,.14,0,.14,0,.14,0,.14,0,.14,0,.13,0,.14,0,.14,0,.14,0,.14,0,.14,0,.14,0,.14,0,.14,0,.14,0,.14,0,.13,0,.14,0,.14,0,.13,0,.14,0,.14,0,.14,0,.14,0,.14,0,.14,0,.14,0,.14,0,.14,0,.14,0,.13,0,.14,0,.14,0,.14,0,.14,0,.14H59.7v0l0-.14,0-.14,0-.14,0-.14,0-.14,0-.14,0-.14,0-.14,0-.14,0-.14,0-.14,0-.14,0-.14,0-.14,0-.14,0-.14,0-.14,0-.14,0-.14,0-.13H55.68v0l0,.15,0,.14,0,.15,0,.14,0,.15,0,.15,0,.15,0,.15,0,.14,0,.15,0,.15,0,.15,0,.14,0,.15,0,.14,0,.15,0,.14,0,.15,0,.14H53Zm11.25-9.11v0a1,1,0,0,1-.15.5l0,.06,0,.05,0,0,0,0,0,0,0,0,0,0,0,0,0,0,0,0,0,0h-.75l0,0,0,0,0,0,0,0,0,0,0,0,0,0,0,0,0,0,0-.05,0-.06,0-.08,0-.1a1,1,0,0,1,0-.16,1,1,0,0,1,0-.19,1.05,1.05,0,0,1,0-.19,1,1,0,0,1,0-.16l0-.1,0-.08,0-.06,0-.05,0,0,0,0,0,0,0,0,0,0,0,0,0,0,0,0,0,0h.75l0,0,0,0,0,0,0,0,0,0,0,0,0,0,0,0,0,0,0,.06,0,.07a1.08,1.08,0,0,1,.15.52Zm-.15,2h0v7.11H62.32v-7.11h1.77ZM58.49,304l0-.14,0-.14,0-.14,0-.14,0-.14,0-.14,0-.14,0-.14,0-.14,0-.14,0-.14,0-.14,0-.14,0-.14,0-.14,0-.14,0-.14,0-.06,0-.08,0-.15,0-.15,0-.16,0-.16,0-.16,0-.17,0-.17,0-.17,0-.18,0-.17,0-.12h0l0,.11,0,.18,0,.18,0,.18,0,.18,0,.18,0,.18,0,.17,0,.17,0,.16,0,.15h0l0,.14,0,.14,0,.14,0,.14,0,.14,0,.14,0,.14,0,.14,0,.14,0,.14,0,.14,0,.14,0,.14,0,.14,0,.14,0,.14,0,.14v0H58.5Z" transform="translate(-46.14 -291.12)"/></g></g></svg>