<svg id="CV" xmlns="http://www.w3.org/2000/svg" width="19.36mm" height="6.52mm" viewBox="0 0 54.88 18.49"><defs><style>.cls-1{fill:#fff;fill-rule:evenodd;}</style></defs><title>invision</title><g id="Software"><path id="Invision" class="cls-1" d="M126.63,340.23v.51c1.2,0,2-.1,2.51-1.73a21.94,21.94,0,0,0,.71-3h-1.19c0-1.68.35-1.36,2.88-1.36,0,.77-.17.67-.17,1.53.66-.48.92-1.46,2.25-1.61a1.81,1.81,0,0,1,2,2c0,1.71-1,2.82-.68,4.24.71,0,.6.05.95-.41s-.08-.52.75-.61c.49,1.07-1.58,3-3,1.83-1.8-1.48,2.08-5.56-.88-5.56-1.3,0-1.46,1.24-1.73,2.34a29.14,29.14,0,0,0-.81,3.43h-1.7a9.48,9.48,0,0,0,.17-1.19,3.28,3.28,0,0,1-2.38,1.36c-2.68,0-.54-4.61-.51-5.94h-1.19c.14-1.69.18-1.36,3.22-1.36,0,1.36-1.19,4.12-1.19,5.6Zm20-5.43v7.29h1.87v-7.8h-1.36c-.39,0-.51.12-.51.51Zm10,7.29h1.87v-7.8h-1.87v7.8Zm-2.71-2c-.25-.92-1.19-.94-2.15-1.25-3.58-1.15-2-4.69.79-4.69a10.25,10.25,0,0,1,2.88.85c-.61,2.3-3.9-.39-3.9,1.36,0,1.51,4.07.64,4.07,3.56,0,3.17-5,2.72-6.11,1.19.11-.4,0-.35.41-.61,1.37-.86,2.82,1.35,4-.41Zm16.8-4.92v-.85h-1.87v7.8h1.87v-4.58a1.61,1.61,0,0,1,3.22,0v4.58h1.87c0-3.87.82-8-2.88-8a3.75,3.75,0,0,0-2.21,1Zm-7.13.68a2.38,2.38,0,0,1,1.63.57c1,.95,1.49,4.18-1.8,4.18-2.58,0-2.7-4.75.17-4.75Zm-4.07,2.38c0,5.11,8.31,5.89,8.31-.34a4.09,4.09,0,0,0-3.9-3.73,4.17,4.17,0,0,0-4.41,4.07Zm-32.07-4.75H127c-1,0-1.1-1.9.19-2s1.49,2,.32,2ZM121,329.71v14.76a1.77,1.77,0,0,0,1.36,1.7H138c1.61,0,1.53-1.43,1.53-3.05s0-3.05,0-4.58l.44.74c.17.4.26.67.38,1a14.53,14.53,0,0,1,.7,1.84h1.87l3.05-7.8h-2a35.17,35.17,0,0,1-2,5.43,20.59,20.59,0,0,0-.92-2.64,17.14,17.14,0,0,1-.95-2.79h-.51c0-3.74.73-6.62-2-6.62H122.89a2.29,2.29,0,0,0-1.32.54A1.8,1.8,0,0,0,121,329.71Z" transform="translate(-121.03 -327.67)"/></g></svg>