<svg id="CV" xmlns="http://www.w3.org/2000/svg" width="31.03mm" height="8.06mm" viewBox="0 0 87.95 22.84"><defs><style>.cls-1{fill:#fff;}</style></defs><title>jim</title><g id="Software"><g id="Justinmind"><g id="_Group_" data-name="&lt;Group&gt;"><path id="_Compound_Path_" data-name="&lt;Compound Path&gt;" class="cls-1" d="M167.65,368.26h-.15a1.34,1.34,0,0,0,.15,2.68h.15a1.34,1.34,0,0,0-.15-2.68Z" transform="translate(-93.2 -356.61)"/><path id="_Compound_Path_2" data-name="&lt;Compound Path&gt;" class="cls-1" d="M181.11,362.53a6.69,6.69,0,0,0-6.63-5.93h0a6.76,6.76,0,0,0-.76,0,6.68,6.68,0,1,0,7.39,5.88Z" transform="translate(-93.2 -356.61)"/></g><path id="_Path_" data-name="&lt;Path&gt;" class="cls-1" d="M94.67,370.16h2.9v5.11c0,2.28-1.59,3.65-4.27,3.65h-.1v.42h.1c2.93,0,4.68-1.52,4.68-4.07v-5.51h-3.3Z" transform="translate(-93.2 -356.61)"/><path id="_Path_2" data-name="&lt;Path&gt;" class="cls-1" d="M105.92,376.69c0,1.52-1.53,2.34-3,2.34s-3-.81-3-2.32v-6.94h-.42v6.93c0,1.79,1.75,2.76,3.39,2.76,2.2,0,3.39-1.41,3.39-2.74v-6.94h-.42Z" transform="translate(-93.2 -356.61)"/><path id="_Path_3" data-name="&lt;Path&gt;" class="cls-1" d="M111.24,374.32c-1.45-.14-2.83-.28-2.94-1.88a1.87,1.87,0,0,1,.39-1.36,3,3,0,0,1,2.37-1h.06a3,3,0,0,1,2.21.82,2,2,0,0,1,.48,1l0,.22.41-.08,0-.21a2.92,2.92,0,0,0-3.08-2.13,3.49,3.49,0,0,0-2.79,1.2,2.3,2.3,0,0,0-.46,1.64c.13,1.94,1.74,2.1,3.29,2.26,1.33.13,2.59.26,2.85,1.49a2,2,0,0,1-.39,1.74,3.28,3.28,0,0,1-2.52,1.06c-1.3,0-2.75-.71-2.89-2l0-.2-.42.05,0,.2c.16,1.55,1.82,2.39,3.29,2.39A3.75,3.75,0,0,0,114,378.2a2.37,2.37,0,0,0,.46-2.05C114.12,374.61,112.65,374.46,111.24,374.32Z" transform="translate(-93.2 -356.61)"/><polygon id="_Path_4" data-name="&lt;Path&gt;" class="cls-1" points="21.45 13.56 24.69 13.56 24.69 22.77 25.1 22.77 25.1 13.56 28.34 13.56 28.34 13.14 21.45 13.14 21.45 13.56"/><polygon id="_Path_5" data-name="&lt;Path&gt;" class="cls-1" points="29.03 13.55 31.03 13.55 31.03 22.32 29.03 22.32 29.03 22.73 33.44 22.73 33.44 22.32 31.44 22.32 31.44 13.55 33.44 13.55 33.44 13.15 29.03 13.15 29.03 13.55"/><polygon id="_Path_6" data-name="&lt;Path&gt;" class="cls-1" points="48.55 13.15 45.4 17.79 42.23 13.14 41.41 13.14 41.41 13.14 41 13.14 41 21.92 34.93 13.14 34.58 13.12 34.58 22.73 35.01 22.73 35.01 14.01 41.04 22.73 41.12 22.73 41.41 22.73 42.5 22.73 42.5 15.98 45 19.7 45.78 19.7 48.28 15.98 48.28 22.72 49.65 22.72 49.65 13.15 48.55 13.15"/><path id="_Compound_Path_3" data-name="&lt;Compound Path&gt;" class="cls-1" d="M149.12,371.13h-1.78v6.81h1.78v1.38h-4.94v-1.38H146v-6.81h-1.78v-1.37h4.94Z" transform="translate(-93.2 -356.61)"/><path id="_Compound_Path_4" data-name="&lt;Compound Path&gt;" class="cls-1" d="M150.35,379.32v-9.58h1.07l4.66,6.74v-6.74h1.37v9.57h-1.09l-4.62-6.69v6.69Z" transform="translate(-93.2 -356.61)"/><path id="_Compound_Path_5" data-name="&lt;Compound Path&gt;" class="cls-1" d="M162.38,369.77a4.78,4.78,0,0,1,0,9.56h-3.43v-9.56Zm0,8.18a3.4,3.4,0,0,0,0-6.79h-2.05v6.79Z" transform="translate(-93.2 -356.61)"/></g></g></svg>