<svg id="CV" xmlns="http://www.w3.org/2000/svg" viewBox="0 0 19.14 15.39"><defs><style>.cls-1{fill:#f6783f;}</style></defs><title>Suitcase</title><g id="Professional_Experienca" data-name="Professional Experienca"><g id="Icon"><g id="_Group_" data-name="&lt;Group&gt;"><path id="_Path_" data-name="&lt;Path&gt;" class="cls-1" d="M247,333.52v.06a1.52,1.52,0,0,1-3,0s0,0,0-.06h-8.35v6.86a.53.53,0,0,0,.6.52h0l17.9,0h.1a.5.5,0,0,0,.52-.53v-6.88Z" transform="translate(-235.63 -325.54)"/><path id="_Compound_Path_" data-name="&lt;Compound Path&gt;" class="cls-1" d="M254.77,332.52v-4.59h0s0-.53-.6-.53h-4.28v-.86a1.09,1.09,0,0,0-1.17-1h-6a1.09,1.09,0,0,0-1.17,1v.86h-1.25l-4,0a.55.55,0,0,0-.58.53v4.61Zm-12.08-6h6v1.79h-6Z" transform="translate(-235.63 -325.54)"/></g></g></g></svg>