<svg id="CV" xmlns="http://www.w3.org/2000/svg" viewBox="0 0 19.75 19.75"><defs><style>.cls-1{fill:#f6783f;}</style></defs><title>Target</title><g id="Objective"><g id="Icon"><path id="_Compound_Path_" data-name="&lt;Compound Path&gt;" class="cls-1" d="M246.32,255.12a1.88,1.88,0,1,0,1.38,1.81,1.85,1.85,0,0,0-.07-.5l5.24-5.24.85.11,2.65-2.65-2-.27-.27-2L251.45,249l.11.85Zm0,0" transform="translate(-236.62 -246.38)"/><g id="_Group_" data-name="&lt;Group&gt;"><path id="_Compound_Path_2" data-name="&lt;Compound Path&gt;" class="cls-1" d="M246,253.32l1.55-1.55a5.45,5.45,0,1,0,3.41,3.41l-1.55,1.55a3.62,3.62,0,1,1-3.41-3.41Zm0,0" transform="translate(-236.62 -246.38)"/><path id="_Compound_Path_3" data-name="&lt;Compound Path&gt;" class="cls-1" d="M252.32,253.85a7.19,7.19,0,1,1-3.41-3.41l1.48-1.48a9.2,9.2,0,1,0,3.41,3.41Zm0,0" transform="translate(-236.62 -246.38)"/></g></g></g></svg>